#!OML:ASF E:\Mandelcareful walks\Project 1\Capture day 1\Session 1\Subject1.ASF
:FULLY-SPECIFIED
:DEGREES
348
root -5.45459 14.3043 0.108674 142.95 74.2415 126.044
lowerback 50.2039 -2.48545 3.39265
upperback 7.60079 0.619499 -0.0398057
thorax -12.1056 0.93502 -2.06866
lowerneck -27.6348 -7.54431 -6.39659
upperneck 17.7728 -8.15004 1.60591
head 10.5239 -3.97379 0.223273
rclavicle -9.54166e-015 -1.74931e-014
rhumerus 27.0791 -2.28946 -72.6226
rradius 50.4729
rwrist -42.4608
rhand -14.3104 -40.3799
rfingers 7.12502
rthumb 11.8298 -70.0257
lclavicle -9.54166e-015 -1.74931e-014
lhumerus -28.1957 -21.3945 93.4123
lradius 46.1025
lwrist 28.9392
lhand -23.427 -13.6433
lfingers 7.12502
lthumb 3.03072 16.3149
rfemur -57.5193 -32.9724 4.78087
rtibia 78.6105
rfoot -27.2957 -2.07577
rtoes -5.29159
lfemur -58.0252 4.93037 -27.4282
ltibia 73.4831
lfoot -26.4615 1.24416
ltoes -4.58621
349
root -5.43141 14.3887 0.112479 142.598 74.4629 126.217
lowerback 50.2213 -2.39254 3.1941
upperback 7.58332 0.623451 -0.0484932
thorax -12.1325 0.939546 -1.98795
lowerneck -27.7192 -7.38098 -6.27684
upperneck 17.7743 -7.939 1.48886
head 10.5198 -3.88336 0.197782
rclavicle 1.11319e-014 -3.18055e-014
rhumerus 25.7619 -1.62953 -72.8376
rradius 51.123
rwrist -42.8109
rhand -14.0984 -40.3284
rfingers 7.12502
rthumb 12.0342 -69.9624
lclavicle 1.11319e-014 -3.18055e-014
lhumerus -28.1602 -21.3015 93.3108
lradius 45.7959
lwrist 28.9686
lhand -23.2233 -13.6372
lfingers 7.12502
lthumb 3.22746 16.3181
rfemur -56.0189 -32.5069 4.66691
rtibia 77.3036
rfoot -27.2385 -2.03251
rtoes -5.3008
lfemur -56.6177 5.13508 -27.1516
ltibia 72.2685
lfoot -26.2221 1.18752
ltoes -4.24603
350
root -5.40843 14.483 0.116739 142.13 74.7635 126.306
lowerback 50.3426 -2.2801 2.92834
upperback 7.5393 0.633128 0.0162512
thorax -12.2063 0.94525 -1.79775
lowerneck -27.8942 -7.24821 -6.34951
upperneck 17.8182 -7.66899 1.31398
head 10.5509 -3.78523 0.187923
rclavicle -4.77083e-014 -2.22639e-014
rhumerus 24.3046 -0.826431 -72.9311
rradius 52.2008
rwrist -43.2826
rhand -13.5681 -42.3126
rfingers 7.12502
rthumb 12.5456 -71.916
lclavicle -4.77083e-014 -2.22639e-014
lhumerus -28.1723 -20.9129 93.2747
lradius 45.581
lwrist 28.8381
lhand -23.1418 -13.505
lfingers 7.12502
lthumb 3.3062 16.4491
rfemur -54.4879 -31.9861 4.62537
rtibia 75.9759
rfoot -27.1033 -1.97748
rtoes -4.61612
lfemur -55.1311 5.37973 -26.8281
ltibia 71.0185
lfoot -26.0141 1.24404
ltoes -4.189
351
root -5.38549 14.5814 0.123708 141.506 75.1565 126.187
lowerback 50.4348 -2.0563 2.75705
upperback 7.4024 0.774973 -0.0727624
thorax -12.3757 0.998657 -1.88228
lowerneck -27.6439 -7.10803 -5.93341
upperneck 17.6829 -7.57459 0.975549
head 10.4226 -3.75948 0.0290981
rclavicle 4.77083e-015 5.24792e-014
rhumerus 22.2865 -0.402366 -73.3256
rradius 53.8155
rwrist -43.6464
rhand -13.9433 -40.0919
rfingers 7.12502
rthumb 12.1837 -69.7171
lclavicle 4.77083e-015 5.24792e-014
lhumerus -28.3672 -21.0014 93.1206
lradius 45.4211
lwrist 28.6695
lhand -23.1702 -13.0496
lfingers 7.12502
lthumb 3.27875 16.9049
rfemur -53.0558 -31.3126 4.67004
rtibia 74.6689
rfoot -26.9862 -1.9543
rtoes -3.56472
lfemur -53.736 5.73431 -26.4922
ltibia 69.7662
lfoot -25.7425 1.45606
ltoes -4.88369
352
root -5.36326 14.6629 0.12852 141.222 75.4572 126.075
lowerback 49.8963 -1.85759 2.50271
upperback 7.40568 0.822006 -0.0730736
thorax -12.2971 1.01119 -1.78378
lowerneck -27.5747 -6.88013 -5.72791
upperneck 17.5626 -7.29683 0.769155
head 10.3408 -3.64549 -0.0239295
rclavicle 1.11319e-014 -1.43125e-014
rhumerus 20.6115 0.357971 -73.6884
rradius 55.0694
rwrist -43.9739
rhand -14.5268 -41.926
rfingers 7.12502
rthumb 11.6212 -71.5838
lclavicle 1.11319e-014 -1.43125e-014
lhumerus -28.3388 -20.7686 93.0225
lradius 45.1755
lwrist 28.4805
lhand -23.2627 -12.3673
lfingers 7.12502
lthumb 3.18944 17.5886
rfemur -52.0713 -30.7637 4.79027
rtibia 73.4551
rfoot -26.799 -2.04532
rtoes -3.51336
lfemur -52.8054 5.99427 -26.2629
ltibia 68.5758
lfoot -25.4217 1.5935
ltoes -5.1989
353
root -5.34204 14.7434 0.128182 141.347 75.6347 126.332
lowerback 49.2459 -1.78453 2.74593
upperback 7.51149 0.940451 -0.337296
thorax -12.0645 1.05888 -2.23855
lowerneck -27.9209 -6.8522 -5.22452
upperneck 17.4928 -7.40918 0.653079
head 10.3499 -3.67556 -0.170261
rclavicle -4.29375e-014 -3.18055e-015
rhumerus 19.0854 0.419797 -74.156
rradius 55.917
rwrist -44.1597
rhand -14.9682 -41.459
rfingers 7.12502
rthumb 11.1954 -71.1403
lclavicle -4.29375e-014 -3.18055e-015
lhumerus -28.0333 -21.4345 92.7431
lradius 44.8844
lwrist 28.5995
lhand -23.4571 -11.8075
lfingers 7.12502
lthumb 3.0017 18.1511
rfemur -51.0731 -30.4668 4.88408
rtibia 72.2139
rfoot -26.445 -2.08409
rtoes -3.23738
lfemur -51.9053 6.0755 -26.066
ltibia 67.387
lfoot -25.106 1.65621
ltoes -5.17512
354
root -5.3207 14.8326 0.129623 141.166 75.8384 126.473
lowerback 48.9813 -1.73497 2.70182
upperback 7.49787 0.929661 -0.450334
thorax -12.0389 1.05046 -2.33628
lowerneck -28.0803 -6.75959 -5.05605
upperneck 17.3387 -7.29426 0.479442
head 10.3025 -3.63282 -0.239727
rclavicle -4.92986e-014 -4.13472e-014
rhumerus 17.6779 1.095 -74.5162
rradius 56.6252
rwrist -44.3216
rhand -15.0363 -40.8058
rfingers 7.12502
rthumb 11.1298 -70.4907
lclavicle -4.92986e-014 -4.13472e-014
lhumerus -27.9941 -21.3809 92.5414
lradius 44.6934
lwrist 28.6911
lhand -23.6191 -11.465
lfingers 7.12502
lthumb 2.84518 18.4958
rfemur -49.8568 -30.1239 4.91319
rtibia 70.902
rfoot -26.0138 -2.04342
rtoes -2.81876
lfemur -50.7365 6.2268 -25.8447
ltibia 66.1636
lfoot -24.7501 1.70815
ltoes -5.21979
